<svg xmlns="http://www.w3.org/2000/svg" viewBox="0 0 520 160" role="img" aria-labelledby="title desc">
  <title id="title">Trueline Research</title>
  <desc id="desc">Logo for Trueline Research with a neural network brain icon.</desc>
  <rect width="520" height="160" fill="none" />
  <g transform="translate(150 52)">
    <text x="0" y="0" font-family="'Poppins','Segoe UI',sans-serif" font-size="44" font-weight="700" fill="#002C71">
      Trueline
    </text>
    <text x="0" y="44" font-family="'Poppins','Segoe UI',sans-serif" font-size="44" font-weight="700" fill="#00A99D">
      Research
    </text>
    <text x="0" y="76" font-family="'Poppins','Segoe UI',sans-serif" font-size="20" font-weight="500" fill="#5E5858" letter-spacing="0.02em">
      Fueling Innovation with AI-Driven Research
    </text>
  </g>
  <g transform="translate(20 16)">
    <path
      d="M182 34c18-24 41-36 69-36 44 0 79 32 79 74 0 37-26 64-61 70-28 5-57-7-74-32"
      fill="none"
      stroke="#00A99D"
      stroke-width="6"
      stroke-linecap="round"
      stroke-linejoin="round"
    />
    <g stroke="#00A99D" stroke-width="6" stroke-linecap="round">
      <line x1="208" y1="36" x2="238" y2="18" />
      <line x1="238" y1="18" x2="276" y2="32" />
      <line x1="276" y1="32" x2="304" y2="58" />
      <line x1="304" y1="58" x2="296" y2="92" />
      <line x1="296" y1="92" x2="260" y2="110" />
      <line x1="260" y1="110" x2="224" y2="96" />
      <line x1="224" y1="96" x2="202" y2="64" />
      <line x1="202" y1="64" x2="208" y2="36" />
      <line x1="224" y1="96" x2="264" y2="70" />
      <line x1="264" y1="70" x2="304" y2="58" />
      <line x1="276" y1="32" x2="264" y2="70" />
      <line x1="264" y1="70" x2="260" y2="110" />
      <line x1="224" y1="96" x2="296" y2="92" />
    </g>
    <g fill="#00A99D">
      <circle cx="208" cy="36" r="8" />
      <circle cx="238" cy="18" r="9" />
      <circle cx="276" cy="32" r="9" />
      <circle cx="304" cy="58" r="9" />
      <circle cx="296" cy="92" r="9" />
      <circle cx="260" cy="110" r="9" />
      <circle cx="224" cy="96" r="9" />
      <circle cx="202" cy="64" r="9" />
      <circle cx="264" cy="70" r="9" />
    </g>
  </g>
</svg>
